<?xml version="1.0" standalone="no"?>
<!DOCTYPE svg PUBLIC "-//W3C//DTD SVG 20010904//EN"
 "http://www.w3.org/TR/2001/REC-SVG-20010904/DTD/svg10.dtd">
<svg version="1.0" xmlns="http://www.w3.org/2000/svg"
 width="260.000000pt" height="260.000000pt" viewBox="0 0 260.000000 260.000000"
 preserveAspectRatio="xMidYMid meet">
<metadata>
Created by potrace 1.11, written by Peter Selinger 2001-2013
</metadata>
<g transform="translate(0.000000,260.000000) scale(0.100000,-0.100000)"
fill="#000000" stroke="none">
<path d="M1774 2166 c-34 -8 -79 -23 -101 -35 -68 -34 -182 -132 -303 -258
l-116 -121 -29 40 c-34 44 -82 78 -113 78 -20 0 -135 -136 -264 -310 -123
-167 -155 -245 -71 -170 72 63 164 121 187 118 36 -5 31 -42 -14 -93 -34 -39
-41 -54 -36 -76 5 -25 -3 -36 -74 -100 -44 -40 -78 -74 -76 -76 2 -3 47 18 98
46 86 46 96 49 115 36 19 -13 27 -12 84 11 50 20 67 23 86 15 31 -14 29 -31
-9 -68 -36 -34 -149 -109 -179 -118 -27 -9 -24 -25 5 -25 60 0 534 151 574
182 21 18 13 69 -22 133 l-34 62 37 13 c79 28 233 101 317 151 113 67 191 144
232 229 33 70 76 208 87 282 l7 45 -34 7 c-81 14 -294 16 -354 2z m147 -61
c-98 -47 -431 -273 -431 -292 0 -3 8 -18 17 -34 23 -38 7 -51 -21 -16 l-23 28
-214 -177 c-118 -97 -221 -182 -229 -188 -8 -6 69 76 173 183 103 107 187 202
187 212 0 10 24 41 53 70 l52 51 3 -31 c5 -46 26 -33 33 19 5 35 14 51 45 78
83 73 241 130 369 131 l59 1 -73 -35z m59 -220 c0 -21 -85 -108 -132 -134
l-43 -24 40 44 c23 24 55 65 73 91 21 31 37 45 47 42 8 -4 15 -12 15 -19z
m-798 -96 l33 -31 -32 21 c-18 12 -45 23 -62 24 -34 2 -31 17 4 17 14 0 39
-14 57 -31z m-81 -50 c23 -19 23 -20 2 -10 -12 6 -28 11 -36 11 -9 0 -52 -44
-98 -97 -97 -115 -105 -124 -94 -103 30 54 173 220 190 220 7 0 23 -9 36 -21z
m575 -106 l59 -27 -35 -6 c-19 -4 -59 -19 -89 -34 -82 -42 -207 -98 -196 -88
6 5 52 39 103 76 61 45 92 74 92 87 0 24 -4 24 66 -8z m-586 -3 c12 -8 11 -10
-6 -10 -11 0 -29 -9 -39 -20 -10 -11 -23 -20 -28 -20 -6 0 2 14 18 30 32 33
34 34 55 20z m267 -57 c2 -6 -83 -69 -189 -140 -288 -194 -291 -191 -19 16
102 78 189 140 195 138 5 -2 11 -8 13 -14z m153 -309 c0 -12 -317 -130 -326
-121 -4 4 296 124 314 126 6 1 12 -2 12 -5z"/>
<path d="M798 1339 c-27 -29 -48 -57 -48 -64 0 -24 -37 -45 -77 -45 -49 0 -93
-31 -93 -65 0 -18 -8 -26 -34 -35 -18 -6 -43 -21 -56 -35 -19 -20 -21 -30 -16
-69 5 -34 3 -47 -9 -58 -9 -7 -21 -19 -28 -26 -25 -27 -46 -48 -71 -69 -14
-12 -29 -34 -32 -50 -4 -22 -16 -33 -48 -46 -94 -39 -130 -119 -84 -187 32
-48 101 -81 177 -84 37 -1 66 -8 78 -18 43 -37 108 -49 158 -29 11 5 28 4 39
-1 28 -15 83 0 120 32 19 17 45 30 58 30 35 0 89 19 113 40 52 45 201 28 280
-32 90 -68 185 -85 273 -48 26 10 66 24 88 30 23 5 52 19 66 29 13 11 42 23
64 27 21 3 52 13 67 21 26 13 30 12 58 -11 36 -31 84 -41 152 -31 29 4 82 6
118 5 39 0 81 5 101 13 18 8 48 12 66 9 47 -6 124 7 119 21 -6 19 -95 48 -166
53 -58 5 -135 7 -203 4 -54 -1 -124 13 -143 30 -30 26 -61 40 -90 40 -14 0
-39 10 -56 22 -42 31 -136 32 -176 2 -26 -20 -68 -70 -103 -123 l-15 -23 -39
56 c-47 69 -90 106 -121 106 -12 0 -25 7 -28 15 -4 8 -28 25 -55 39 -26 13
-54 32 -62 41 -42 51 -139 62 -213 25 -25 -13 -51 -20 -59 -16 -7 4 -24 13
-38 21 -33 19 -74 19 -111 0 -28 -15 -32 -14 -55 4 -14 11 -20 22 -14 26 5 3
10 17 10 30 0 15 7 26 20 30 10 3 30 19 44 36 19 22 33 29 60 29 49 0 66 9 66
34 0 15 9 27 25 34 14 7 28 19 31 27 4 8 18 15 34 15 45 0 60 10 60 39 0 20
-7 31 -24 39 -21 9 -38 5 -116 -34 -50 -24 -96 -41 -102 -38 -5 4 25 41 67 84
66 66 76 81 70 101 -9 30 -24 49 -39 49 -6 0 -32 -23 -58 -51z m34 -22 c-18
-18 -32 -39 -33 -47 0 -10 -2 -11 -6 -3 -5 14 44 83 60 83 6 0 -3 -15 -21 -33z
m118 -127 c-6 -11 -21 -20 -33 -20 -20 0 -19 2 8 19 38 25 38 25 25 1z m-255
2 c-6 -4 -23 -18 -39 -32 -27 -24 -28 -24 -17 -3 6 12 19 27 29 32 20 12 41
15 27 3z m-121 -107 c-9 -14 -23 -42 -31 -63 l-14 -37 5 45 c3 30 12 51 26 62
30 24 33 23 14 -7z m244 13 c-3 -7 -18 -14 -34 -16 l-29 -3 25 15 c32 18 43
19 38 4z m-308 -220 c-19 -5 -56 -19 -82 -32 -41 -20 -45 -21 -35 -5 17 28 67
49 112 48 l40 -1 -35 -10z m310 -78 c11 -7 3 -10 -29 -10 -53 0 -123 -31 -152
-68 -20 -25 -21 -25 -15 -5 6 17 1 29 -20 48 -15 14 -21 25 -14 25 7 0 21 -7
31 -15 15 -15 20 -14 54 10 40 26 115 34 145 15z m-465 -122 c10 -25 -12 -23
-25 1 -5 11 -10 39 -9 63 l1 43 13 -45 c7 -25 16 -53 20 -62z m692 65 c33 6
34 5 17 -8 -11 -8 -25 -15 -31 -15 -7 0 -19 -13 -28 -30 -17 -32 -43 -50 -72
-49 -14 0 -15 2 -3 6 48 18 63 62 33 95 -15 17 -15 18 16 7 18 -6 48 -9 68 -6z
m204 -64 c-12 -19 -21 -45 -22 -59 -1 -14 -3 -18 -6 -9 -3 13 -14 15 -56 12
-38 -3 -48 -2 -37 6 8 6 25 11 37 11 12 0 38 18 59 40 44 46 53 46 25 -1z
m464 16 c-24 -9 -55 -32 -79 -60 -21 -25 -46 -45 -55 -45 -11 0 2 20 39 60 50
54 59 59 95 59 l40 0 -40 -14z m-1405 -90 c19 -10 55 -24 80 -31 l45 -12 -48
-1 c-59 -1 -108 18 -130 52 -22 34 -22 44 1 25 9 -9 33 -24 52 -33z m248 -1
c-9 -9 -21 -13 -28 -9 -8 5 -4 11 12 19 29 16 37 10 16 -10z m1362 6 c-32 -25
-43 -25 -30 0 6 11 21 20 33 20 22 0 22 -1 -3 -20z m-526 -61 l31 -19 -28 0
c-34 0 -77 40 -77 71 0 21 1 20 22 -6 12 -15 35 -36 52 -46z m806 63 c0 -4
-13 -15 -29 -25 -32 -19 -78 -22 -101 -7 -11 7 -5 10 25 10 22 1 54 7 70 15
17 7 31 14 33 14 1 1 2 -3 2 -7z m-1420 -66 c0 -3 -7 -12 -16 -20 -19 -19 -69
-20 -109 -1 -30 13 -30 14 15 8 25 -2 56 0 70 6 28 11 40 13 40 7z"/>
</g>
</svg>
